<?xml version="1.0" encoding="utf-8"?>
<!-- Generator: Adobe Illustrator 27.5.0, SVG Export Plug-In . SVG Version: 6.00 Build 0)  -->
<svg version="1.1" xmlns="http://www.w3.org/2000/svg" xmlns:xlink="http://www.w3.org/1999/xlink" x="0px" y="0px"
	 viewBox="0 0 500 500" style="enable-background:new 0 0 500 500;" xml:space="preserve">
<g id="Background_Simple">
	<g>
		<path style="fill:#92E3A9;" d="M441.696,104.544c-11.342-14.979-25.456-27.973-42.673-38.172
			c-27.572-16.332-58.661-26.225-90.123-31.671c-99.552-17.23-154.114,0.957-195.275,30.632
			c-27.264,19.656-35.831,61.484-43.885,91.9c-4.52,17.072-8.544,34.314-14.168,51.069c-8.731,26.014-28.556,47.047-35.175,73.806
			c-6.998,28.29-6.441,58.093,3.249,85.709c19.145,54.562,51.69,86.151,126.354,96.68c39.977,5.638,72.154-10.884,105.34-30.775
			c20.465-12.266,41.676-23.312,65.152-28.308c24.802-5.279,50.309-6.006,75.178-10.901c55.629-10.95,73.482-63.6,80.711-113.473
			C485.132,220.658,479.65,154.671,441.696,104.544z"/>
		<path style="opacity:0.7;fill:#FFFFFF;" d="M441.696,104.544c-11.342-14.979-25.456-27.973-42.673-38.172
			c-27.572-16.332-58.661-26.225-90.123-31.671c-99.552-17.23-154.114,0.957-195.275,30.632
			c-27.264,19.656-35.831,61.484-43.885,91.9c-4.52,17.072-8.544,34.314-14.168,51.069c-8.731,26.014-28.556,47.047-35.175,73.806
			c-6.998,28.29-6.441,58.093,3.249,85.709c19.145,54.562,51.69,86.151,126.354,96.68c39.977,5.638,72.154-10.884,105.34-30.775
			c20.465-12.266,41.676-23.312,65.152-28.308c24.802-5.279,50.309-6.006,75.178-10.901c55.629-10.95,73.482-63.6,80.711-113.473
			C485.132,220.658,479.65,154.671,441.696,104.544z"/>
	</g>
</g>
<g id="Window">
	<g style="opacity:0.2;">
		<polygon style="fill:none;stroke:#000000;stroke-linejoin:round;stroke-miterlimit:10;" points="477.536,59.109 286.776,59.109 
			280.011,75.344 477.536,75.344 		"/>
		<polygon style="fill:none;stroke:#000000;stroke-linejoin:round;stroke-miterlimit:10;" points="477.536,75.344 286.776,75.344 
			280.011,91.579 477.536,91.579 		"/>
		<polygon style="fill:none;stroke:#000000;stroke-linejoin:round;stroke-miterlimit:10;" points="477.536,91.579 286.776,91.579 
			280.011,107.814 477.536,107.814 		"/>
		<polygon style="fill:none;stroke:#000000;stroke-linejoin:round;stroke-miterlimit:10;" points="477.536,107.814 286.776,107.814 
			280.011,124.049 477.536,124.049 		"/>
		<polygon style="fill:none;stroke:#000000;stroke-linejoin:round;stroke-miterlimit:10;" points="477.536,124.049 286.776,124.049 
			280.011,140.284 477.536,140.284 		"/>
		<polygon style="fill:none;stroke:#000000;stroke-linejoin:round;stroke-miterlimit:10;" points="477.536,140.284 286.776,140.284 
			280.011,156.518 477.536,156.518 		"/>
		<polygon style="fill:none;stroke:#000000;stroke-linejoin:round;stroke-miterlimit:10;" points="477.536,156.518 286.776,156.518 
			280.011,172.753 477.536,172.753 		"/>
		<polygon style="fill:none;stroke:#000000;stroke-linejoin:round;stroke-miterlimit:10;" points="477.536,172.753 286.776,172.753 
			280.011,188.988 477.536,188.988 		"/>
		<polygon style="fill:none;stroke:#000000;stroke-linejoin:round;stroke-miterlimit:10;" points="477.536,188.988 286.776,188.988 
			280.011,205.223 477.536,205.223 		"/>
		<polygon style="fill:none;stroke:#000000;stroke-linejoin:round;stroke-miterlimit:10;" points="477.536,205.223 286.776,205.223 
			280.011,221.458 477.536,221.458 		"/>
		<polygon style="fill:none;stroke:#000000;stroke-linejoin:round;stroke-miterlimit:10;" points="477.536,221.458 286.776,221.458 
			280.011,237.693 477.536,237.693 		"/>
		<polygon style="fill:none;stroke:#000000;stroke-linejoin:round;stroke-miterlimit:10;" points="477.536,237.693 286.776,237.693 
			280.011,253.928 477.536,253.928 		"/>
		<polygon style="fill:none;stroke:#000000;stroke-linejoin:round;stroke-miterlimit:10;" points="477.536,253.928 286.776,253.928 
			280.011,270.163 477.536,270.163 		"/>
		<polygon style="fill:none;stroke:#000000;stroke-linejoin:round;stroke-miterlimit:10;" points="477.536,270.163 286.776,270.163 
			280.011,286.397 477.536,286.397 		"/>
		<polygon style="fill:none;stroke:#000000;stroke-linejoin:round;stroke-miterlimit:10;" points="477.536,286.397 286.776,286.397 
			280.011,302.632 477.536,302.632 		"/>
		<polygon style="fill:none;stroke:#000000;stroke-linejoin:round;stroke-miterlimit:10;" points="477.536,302.632 286.776,302.632 
			280.011,318.867 477.536,318.867 		"/>
		
			<rect x="277.982" y="53.698" style="fill:none;stroke:#000000;stroke-linejoin:round;stroke-miterlimit:10;" width="203.612" height="270.581"/>
	</g>
</g>
<g id="Lamp">
	<g style="opacity:0.2;">
		<g>
			
				<rect x="37.286" y="421.871" style="fill:none;stroke:#000000;stroke-linejoin:round;stroke-miterlimit:10;" width="68.417" height="36.106"/>
			
				<rect x="65.939" y="435.699" style="fill:none;stroke:#000000;stroke-linejoin:round;stroke-miterlimit:10;" width="11.11" height="5.378"/>
		</g>
		<g>
			
				<rect x="33.777" y="374.941" style="fill:none;stroke:#000000;stroke-linejoin:round;stroke-miterlimit:10;" width="75.434" height="92.392"/>
			<g>
				
					<rect x="37.286" y="379.619" style="fill:none;stroke:#000000;stroke-linejoin:round;stroke-miterlimit:10;" width="68.417" height="36.106"/>
				
					<rect x="65.939" y="393.447" style="fill:none;stroke:#000000;stroke-linejoin:round;stroke-miterlimit:10;" width="11.11" height="5.378"/>
			</g>
			<g>
				
					<rect x="52.1" y="369.094" style="fill:none;stroke:#000000;stroke-linejoin:round;stroke-miterlimit:10;" width="26.899" height="5.848"/>
				
					<rect x="62.041" y="350.966" style="fill:none;stroke:#000000;stroke-linejoin:round;stroke-miterlimit:10;" width="4.678" height="18.128"/>
				
					<rect x="38.65" y="308.863" style="fill:none;stroke:#000000;stroke-linejoin:round;stroke-miterlimit:10;" width="50.29" height="42.103"/>
			</g>
		</g>
	</g>
</g>
<g id="Couch">
	<g style="opacity:0.2;">
		<path style="fill:none;stroke:#000000;stroke-linejoin:round;stroke-miterlimit:10;" d="M388.899,423.591v-46.044v-31.16
			c0-6.134-4.964-11.098-11.098-11.098H277.232h-0.854v88.302v0.77"/>
		<path style="fill:none;stroke:#000000;stroke-linejoin:round;stroke-miterlimit:10;" d="M277.232,335.289h-0.854H173.917
			c-6.124,0-11.089,4.964-11.089,11.098v32.904v44.299"/>
		<path style="fill:none;stroke:#000000;stroke-linejoin:round;stroke-miterlimit:10;" d="M398.921,430.968v25.963H276.425v-33.34
			h115.119C395.618,423.591,398.921,426.895,398.921,430.968z"/>
		<path style="fill:none;stroke:#000000;stroke-linejoin:round;stroke-miterlimit:10;" d="M277.362,423.591h-0.13h-0.807h-0.046
			H164.888h-2.06h-2.645c-4.074,0-7.377,3.303-7.377,7.377v25.963h123.619h0.937"/>
		<polyline style="fill:none;stroke:#000000;stroke-linejoin:round;stroke-miterlimit:10;" points="152.806,467.84 152.806,456.932 
			399.125,456.932 399.125,467.84 		"/>
		<path style="fill:none;stroke:#000000;stroke-linejoin:round;stroke-miterlimit:10;" d="M162.828,379.292
			c-1.355-1.41-3.266-2.292-5.373-2.292h-22.307c-4.111,0-7.442,3.322-7.442,7.433v82.873"/>
		<path style="fill:none;stroke:#000000;stroke-linejoin:round;stroke-miterlimit:10;" d="M421.433,466.771v-82.338
			c0-4.111-3.331-7.433-7.433-7.433h-22.307c-0.993,0-1.93,0.195-2.793,0.547"/>
	</g>
</g>
<g id="Certification">
	<g>
		<g>
			<path style="fill:#92E3A9;stroke:#263238;stroke-miterlimit:10;" d="M438.462,52.056v241.01c0,6.07-4.92,10.99-10.99,10.99
				H79.452c-6.07,0-10.99-4.92-10.99-10.99V52.056c0-5.52,4.48-10,10-10h350C433.982,42.056,438.462,46.536,438.462,52.056z"/>
			<g>
				<path style="fill:#C9C9C9;stroke:#263238;stroke-miterlimit:10;" d="M438.462,52.056v20.8h-370v-20.8c0-5.52,4.48-10,10-10h350
					C433.982,42.056,438.462,46.536,438.462,52.056z"/>
				<path style="fill:#FFFFFF;stroke:#263238;stroke-miterlimit:10;" d="M306.924,68.826H109.542c-1.854,0-3.357-1.503-3.357-3.357
					l0,0c0-1.854,1.503-3.357,3.357-3.357h197.382c1.854,0,3.357,1.503,3.357,3.357l0,0
					C310.281,67.324,308.778,68.826,306.924,68.826z"/>
				<line style="fill:none;stroke:#263238;stroke-miterlimit:10;" x1="419.713" y1="62.784" x2="432.469" y2="62.784"/>
				<line style="fill:none;stroke:#263238;stroke-miterlimit:10;" x1="419.713" y1="65.47" x2="432.469" y2="65.47"/>
				<line style="fill:none;stroke:#263238;stroke-miterlimit:10;" x1="419.713" y1="68.155" x2="432.469" y2="68.155"/>
			</g>
			<path style="fill:#263238;stroke:#263238;stroke-miterlimit:10;" d="M438.462,52.056v6h-370v-6c0-5.52,4.48-10,10-10h350
				C433.982,42.056,438.462,46.536,438.462,52.056z"/>
			<path style="fill:#FFFFFF;stroke:#263238;stroke-miterlimit:10;" d="M401.598,50.389c0-1.686-1.366-3.052-3.052-3.052
				c-1.685,0-3.052,1.366-3.052,3.052s1.366,3.052,3.052,3.052C400.231,53.441,401.598,52.075,401.598,50.389z"/>
			<path style="fill:#FFFFFF;stroke:#263238;stroke-miterlimit:10;" d="M414.241,50.389c0-1.686-1.366-3.052-3.052-3.052
				c-1.685,0-3.052,1.366-3.052,3.052s1.366,3.052,3.052,3.052C412.875,53.441,414.241,52.075,414.241,50.389z"/>
			<path style="fill:#FFFFFF;stroke:#263238;stroke-miterlimit:10;" d="M426.884,50.389c0-1.686-1.366-3.052-3.052-3.052
				c-1.685,0-3.052,1.366-3.052,3.052s1.366,3.052,3.052,3.052C425.518,53.441,426.884,52.075,426.884,50.389z"/>
		</g>
		<g>
			<rect x="89.408" y="83.127" style="fill:#FFFFFF;stroke:#263238;stroke-miterlimit:10;" width="329.107" height="205.956"/>
			
				<rect x="97.804" y="91.665" style="fill:none;stroke:#92E3A9;stroke-width:5;stroke-miterlimit:10;" width="312.316" height="188.88"/>
			<rect x="105.781" y="101.105" style="fill:none;stroke:#92E3A9;stroke-miterlimit:10;" width="296.361" height="170"/>
			<g>
				<path style="fill:#263238;" d="M204.395,120.989v1.747h-2.052v-1.857c0-1.747-0.693-2.8-2.273-2.8
					c-1.553,0-2.273,1.054-2.273,2.8v10.258c0,1.747,0.721,2.8,2.273,2.8c1.58,0,2.273-1.054,2.273-2.8v-2.523h2.052v2.412
					c0,2.939-1.386,4.879-4.381,4.879c-2.966,0-4.353-1.94-4.353-4.879v-10.037c0-2.939,1.386-4.879,4.353-4.879
					C203.009,116.11,204.395,118.05,204.395,120.989z"/>
				<path style="fill:#263238;" d="M213.266,124.899v1.941h-4.741v6.904h5.822v1.968h-7.985v-19.408h7.985v1.969h-5.822v6.626
					H213.266z"/>
				<path style="fill:#263238;" d="M220.667,116.304c3.05,0,4.325,1.553,4.325,4.436v1.58c0,2.135-0.749,3.465-2.412,3.992
					c1.774,0.527,2.44,1.969,2.44,4.048v3.022c0,0.86,0.028,1.664,0.388,2.329h-2.19c-0.25-0.555-0.36-1.054-0.36-2.356v-3.05
					c0-2.19-1.026-2.884-2.828-2.884h-1.525v8.29h-2.163v-19.408H220.667z M220.113,125.453c1.719,0,2.745-0.555,2.745-2.662v-1.857
					c0-1.747-0.638-2.662-2.246-2.662h-2.107v7.181H220.113z"/>
				<path style="fill:#263238;" d="M230.093,135.712v-17.439h-3.577v-1.969h9.316v1.969h-3.577v17.439H230.093z"/>
				<path style="fill:#263238;" d="M239.491,116.304v19.408h-2.163v-19.408H239.491z"/>
				<path style="fill:#263238;" d="M248.335,125.342v1.968h-4.464v8.401h-2.163v-19.408h7.708v1.969h-5.545v7.07H248.335z"/>
				<path style="fill:#263238;" d="M253.297,116.304v19.408h-2.162v-19.408H253.297z"/>
				<path style="fill:#263238;" d="M264.081,120.989v1.747h-2.052v-1.857c0-1.747-0.692-2.8-2.273-2.8
					c-1.552,0-2.273,1.054-2.273,2.8v10.258c0,1.747,0.722,2.8,2.273,2.8c1.581,0,2.273-1.054,2.273-2.8v-2.523h2.052v2.412
					c0,2.939-1.386,4.879-4.38,4.879c-2.967,0-4.354-1.94-4.354-4.879v-10.037c0-2.939,1.387-4.879,4.354-4.879
					C262.695,116.11,264.081,118.05,264.081,120.989z"/>
				<path style="fill:#263238;" d="M268.239,131.802l-0.748,3.909h-1.996l3.715-19.408h3.133l3.716,19.408h-2.163l-0.748-3.909
					H268.239z M268.517,129.944h4.325l-2.19-11.201L268.517,129.944z"/>
				<path style="fill:#263238;" d="M280.576,135.712v-17.439H277v-1.969h9.315v1.969h-3.576v17.439H280.576z"/>
				<path style="fill:#263238;" d="M289.975,116.304v19.408h-2.162v-19.408H289.975z"/>
				<path style="fill:#263238;" d="M292.025,120.989c0-2.966,1.47-4.879,4.436-4.879c2.994,0,4.464,1.913,4.464,4.879v10.037
					c0,2.939-1.47,4.879-4.464,4.879c-2.967,0-4.436-1.94-4.436-4.879V120.989z M294.16,131.137c0,1.774,0.749,2.8,2.302,2.8
					c1.58,0,2.301-1.026,2.301-2.8v-10.258c0-1.747-0.721-2.8-2.301-2.8c-1.553,0-2.302,1.054-2.302,2.8V131.137z"/>
				<path style="fill:#263238;" d="M304.89,135.712h-1.941v-19.408h2.745l4.491,14.029v-14.029h1.913v19.408h-2.245l-4.963-15.692
					V135.712z"/>
			</g>
			<line style="fill:none;stroke:#263238;stroke-miterlimit:10;" x1="181.253" y1="146.527" x2="330.122" y2="146.527"/>
			<g>
				<line style="fill:none;stroke:#263238;stroke-miterlimit:10;" x1="382.103" y1="165.515" x2="392.403" y2="165.515"/>
				<line style="fill:none;stroke:#263238;stroke-miterlimit:10;" x1="293.97" y1="165.515" x2="376.662" y2="165.515"/>
				<line style="fill:none;stroke:#263238;stroke-miterlimit:10;" x1="246.095" y1="165.515" x2="289.255" y2="165.515"/>
				<line style="fill:none;stroke:#263238;stroke-miterlimit:10;" x1="181.9" y1="165.515" x2="241.743" y2="165.515"/>
				<line style="fill:none;stroke:#263238;stroke-miterlimit:10;" x1="143.092" y1="165.515" x2="175.734" y2="165.515"/>
				<line style="fill:none;stroke:#263238;stroke-miterlimit:10;" x1="118.972" y1="165.515" x2="138.377" y2="165.515"/>
				<line style="fill:none;stroke:#263238;stroke-miterlimit:10;" x1="242.831" y1="174.63" x2="392.403" y2="174.63"/>
				<line style="fill:none;stroke:#263238;stroke-miterlimit:10;" x1="126.771" y1="174.63" x2="238.116" y2="174.63"/>
				<line style="fill:none;stroke:#263238;stroke-miterlimit:10;" x1="118.972" y1="174.63" x2="122.419" y2="174.63"/>
				<line style="fill:none;stroke:#263238;stroke-miterlimit:10;" x1="381.015" y1="183.744" x2="392.403" y2="183.744"/>
				<line style="fill:none;stroke:#263238;stroke-miterlimit:10;" x1="319.721" y1="183.744" x2="375.574" y2="183.744"/>
				<line style="fill:none;stroke:#263238;stroke-miterlimit:10;" x1="235.215" y1="183.744" x2="315.368" y2="183.744"/>
				<line style="fill:none;stroke:#263238;stroke-miterlimit:10;" x1="222.883" y1="183.744" x2="230.5" y2="183.744"/>
				<line style="fill:none;stroke:#263238;stroke-miterlimit:10;" x1="118.972" y1="183.744" x2="216.355" y2="183.744"/>
				<line style="fill:none;stroke:#263238;stroke-miterlimit:10;" x1="346.922" y1="192.858" x2="392.403" y2="192.858"/>
				<line style="fill:none;stroke:#263238;stroke-miterlimit:10;" x1="184.438" y1="192.858" x2="342.57" y2="192.858"/>
				<line style="fill:none;stroke:#263238;stroke-miterlimit:10;" x1="169.931" y1="192.858" x2="178.635" y2="192.858"/>
				<line style="fill:none;stroke:#263238;stroke-miterlimit:10;" x1="118.972" y1="192.858" x2="165.216" y2="192.858"/>
				<line style="fill:none;stroke:#263238;stroke-miterlimit:10;" x1="363.968" y1="201.973" x2="392.403" y2="201.973"/>
				<line style="fill:none;stroke:#263238;stroke-miterlimit:10;" x1="242.468" y1="201.973" x2="358.165" y2="201.973"/>
				<line style="fill:none;stroke:#263238;stroke-miterlimit:10;" x1="196.044" y1="201.973" x2="237.028" y2="201.973"/>
				<line style="fill:none;stroke:#263238;stroke-miterlimit:10;" x1="131.123" y1="201.973" x2="190.604" y2="201.973"/>
				<line style="fill:none;stroke:#263238;stroke-miterlimit:10;" x1="118.972" y1="201.973" x2="127.497" y2="201.973"/>
			</g>
			<g>
				<polygon style="fill:#263238;stroke:#263238;stroke-linecap:round;stroke-linejoin:round;stroke-miterlimit:10;" points="
					130.016,242.114 139.404,266.475 143.944,255.463 154.967,259.952 144.193,237.069 				"/>
				<polygon style="fill:#263238;stroke:#263238;stroke-linecap:round;stroke-linejoin:round;stroke-miterlimit:10;" points="
					126.673,236.814 115.323,260.325 126.462,256.105 130.727,267.217 140.05,243.705 				"/>
				<path style="fill:#92E3A9;stroke:#263238;stroke-miterlimit:10;" d="M154.943,230.886c0-0.89,1.927-1.906,1.805-2.763
					c-0.125-0.878-2.262-1.313-2.506-2.146c-0.249-0.848,1.313-2.367,0.95-3.159c-0.366-0.801-2.538-0.613-3.011-1.348
					c-0.476-0.739,0.593-2.638,0.02-3.299c-0.575-0.662-2.606,0.127-3.269-0.447c-0.661-0.573-0.167-2.697-0.906-3.172
					c-0.734-0.473-2.462,0.855-3.262,0.489c-0.792-0.362-0.917-2.539-1.764-2.787c-0.833-0.244-2.113,1.518-2.991,1.393
					c-0.856-0.122-1.59-2.175-2.48-2.175c-0.89,0-1.624,2.053-2.481,2.175c-0.878,0.125-2.158-1.638-2.991-1.393
					c-0.848,0.249-0.972,2.425-1.764,2.788c-0.801,0.366-2.528-0.962-3.262-0.489c-0.739,0.476-0.244,2.599-0.906,3.172
					c-0.662,0.574-2.694-0.215-3.268,0.447c-0.573,0.661,0.496,2.56,0.02,3.299c-0.473,0.734-2.645,0.547-3.011,1.348
					c-0.362,0.792,1.199,2.311,0.951,3.158c-0.244,0.833-2.381,1.268-2.506,2.146c-0.122,0.856,1.805,1.872,1.805,2.762
					c0,0.89-1.927,1.907-1.805,2.763c0.125,0.878,2.262,1.313,2.506,2.146c0.249,0.848-1.313,2.367-0.95,3.159
					c0.366,0.801,2.538,0.613,3.011,1.347c0.476,0.739-0.593,2.638-0.02,3.299c0.575,0.662,2.606-0.127,3.269,0.447
					c0.661,0.573,0.167,2.697,0.906,3.172c0.734,0.473,2.462-0.855,3.262-0.489c0.792,0.362,0.917,2.539,1.764,2.787
					c0.833,0.244,2.113-1.518,2.991-1.393c0.856,0.122,1.59,2.175,2.48,2.175c0.89,0,1.624-2.053,2.481-2.175
					c0.878-0.125,2.158,1.637,2.991,1.393c0.848-0.248,0.973-2.425,1.765-2.788c0.801-0.366,2.528,0.962,3.262,0.489
					c0.739-0.476,0.244-2.599,0.906-3.172c0.662-0.574,2.694,0.215,3.269-0.447c0.573-0.661-0.496-2.56-0.02-3.299
					c0.473-0.734,2.645-0.547,3.011-1.348c0.362-0.792-1.199-2.311-0.951-3.159c0.244-0.833,2.381-1.268,2.506-2.146
					C156.87,232.793,154.943,231.776,154.943,230.886z"/>
				
					<circle style="fill:#263238;stroke:#263238;stroke-linecap:round;stroke-linejoin:round;stroke-miterlimit:10;" cx="137.53" cy="230.886" r="12.064"/>
				<polygon style="fill:#92E3A9;" points="137.529,222.604 139.389,228.327 145.407,228.327 140.538,231.864 142.398,237.587 
					137.529,234.05 132.661,237.587 134.521,231.864 129.652,228.327 135.67,228.327 				"/>
			</g>
			<line style="fill:none;stroke:#263238;stroke-miterlimit:10;" x1="169.129" y1="225.105" x2="215.129" y2="225.105"/>
			<line style="fill:none;stroke:#263238;stroke-miterlimit:10;" x1="169.129" y1="236.098" x2="215.129" y2="236.098"/>
			<circle style="fill:none;stroke:#92E3A9;stroke-miterlimit:10;" cx="366.695" cy="234.098" r="17.1"/>
			
				<ellipse transform="matrix(0.9768 -0.2139 0.2139 0.9768 -41.5922 83.8692)" style="fill:#92E3A9;" cx="366.695" cy="234.098" rx="11.604" ry="11.604"/>
		</g>
	</g>
</g>
<g id="Plant">
	<g>
		<g>
			<path style="fill:#92E3A9;stroke:#263238;stroke-miterlimit:10;" d="M423,426.5c0,0-3.5-6-5.25-9.25S414.5,410,414.5,410
				s4.25,2.5,5.5,3.5s6.5,7.25,6.5,7.25L428,419l-1.75-5.75l5.75,6.5l2.75-11.75l4.25,11.25l8-10l0.5,10l9.75-7.75l-3.5,12.25
				L450,429h-26.75L423,426.5z"/>
			<path style="fill:#92E3A9;stroke:#263238;stroke-miterlimit:10;" d="M421.5,426.5c0,0-2.25-1-6-5.5s-6.5-9.25-6.5-9.25
				s8.5,4.75,11.5,7s7,7.25,7,7.25s-2.5-6.25-2.75-9.25s-0.5-9.5-0.5-9.5s7.25,7.25,7.75,9.25s3.25,8.75,3.25,8.75s1.5-5.5,2-9.25
				s4.5-9.75,4.5-9.75s0.5,4.25,0.75,8.5S440.25,427,440.25,427s3.25-7.75,6.5-11.5s8.25-7.75,8.25-7.75s-2.5,7.75-3.5,11.25
				s-3.75,7.75-3.75,7.75s5-6.25,7.5-8.5S463,413,463,413s-2.75,5.25-4.75,8.25s-6,7.5-6,7.5H421.5V426.5z"/>
		</g>
		<polygon style="fill:#FFFFFF;stroke:#263238;stroke-miterlimit:10;" points="456.7,426 454.97,441.25 452,467.33 420.67,467.33 
			417.7,441.25 415.97,426 		"/>
		<polygon style="fill:#92E3A9;stroke:#263238;stroke-miterlimit:10;" points="454.97,441.25 452,467.33 420.67,467.33 
			417.7,441.25 		"/>
		<circle style="fill:#263238;" cx="423.5" cy="447" r="1.5"/>
		<circle style="fill:#263238;" cx="434.5" cy="447" r="1.5"/>
		<circle style="fill:#263238;" cx="427.75" cy="454.75" r="1.5"/>
		<circle style="fill:#263238;" cx="441" cy="454.75" r="1.5"/>
		<circle style="fill:#263238;" cx="449.75" cy="454.75" r="1.5"/>
		<circle style="fill:#263238;" cx="445.5" cy="447" r="1.5"/>
		<circle style="fill:#263238;" cx="423.5" cy="461" r="1.5"/>
		<circle style="fill:#263238;" cx="434.5" cy="461" r="1.5"/>
		<circle style="fill:#263238;" cx="445.5" cy="461" r="1.5"/>
	</g>
</g>
<g id="Character">
	<g>
		<path style="fill:#FFFFFF;stroke:#263238;stroke-linecap:round;stroke-linejoin:round;stroke-miterlimit:10;" d="M271.166,298.336
			c-0.018,7.622-4.077,13.791-9.066,13.779c-4.989-0.012-9.018-6.2-9-13.822c0.018-7.622,4.077-13.791,9.066-13.779
			C267.154,284.526,271.184,290.714,271.166,298.336z"/>
		<path style="fill:#263238;stroke:#263238;stroke-linecap:round;stroke-linejoin:round;stroke-miterlimit:10;" d="M273.493,263.794
			c0,0-4.871,2.783-9.51-0.232c-4.639-3.015-1.392-4.407-0.464-6.263c0.928-1.855-1.392-2.319-1.855-4.871
			c-0.464-2.551,1.16-4.639,2.087-4.871c0.928-0.232,0.696-2.783,0.696-5.335c0-2.551,3.015-4.871,4.407-4.871
			c1.392,0,2.319-1.856,3.247-4.175c0.928-2.319,2.783-4.407,6.031-3.015c3.247,1.392,4.871,1.392,6.494-0.928
			c1.624-2.319,5.567-2.783,6.958-1.624c1.392,1.16,2.088,3.479,4.871,1.16c2.783-2.319,6.262-1.855,7.886-0.232
			c1.624,1.624,1.392,3.479,3.943,2.551s6.726,0.464,7.654,3.247c0.928,2.783,6.031,5.799,7.886,5.103
			c1.856-0.696,5.103,0,3.479,3.479c-1.624,3.479,0.232,5.799,1.624,5.799s4.407,0.928,2.783,3.943
			c-1.624,3.015-2.783,5.335-0.928,6.263c1.855,0.928,4.871,1.16,2.551,5.103c-2.32,3.943-4.175,3.711-3.479,6.031
			c0.696,2.319,2.087,3.015,0,4.639s-4.639,2.32-4.639,3.711c0,1.392,2.783,2.087-0.464,3.247c-3.247,1.16-5.799,1.392-5.799,1.392
			s-4.639-12.525-17.86-16.7c-13.221-4.175-20.875-3.711-23.89-2.087C274.189,265.882,273.493,263.794,273.493,263.794z"/>
		<path style="fill:#FFFFFF;stroke:#263238;stroke-miterlimit:10;" d="M278.164,348.825l-16.952,7.848c0,0-8.79,48.658-8.162,62.156
			c0.628,13.499,8.162,47.088,8.162,47.088h40.81c0,0-6.278-41.124-3.139-55.878c3.139-14.754,10.673-55.25,10.673-55.25
			s-12.557-3.453-16.324-4.081C289.465,350.081,278.164,348.825,278.164,348.825z"/>
		<path style="fill:#263238;" d="M258.664,371.558l46.972,4.062c-0.373,1.964-0.758,3.986-1.149,6.03l-46.799-4.047
			C258.022,375.498,258.35,373.47,258.664,371.558z M298.883,410.04c0.361-1.697,0.781-3.738,1.24-6.017l-45.664-3.948
			c-0.26,2.102-0.494,4.138-0.695,6.07l45.117,3.901C298.882,410.044,298.882,410.042,298.883,410.04z M302.916,389.824
			l-46.491-4.02c-0.3,2.01-0.594,4.037-0.877,6.054l46.196,3.995C302.126,393.899,302.519,391.877,302.916,389.824z
			 M253.067,415.056c-0.057,1.446-0.066,2.718-0.017,3.774c0.034,0.726,0.091,1.521,0.163,2.355l44.815,2.846
			c-0.04-2.144-0.031-4.199,0.036-6.117L253.067,415.056z M261.491,356.544l-0.279,0.129c0,0-0.405,2.241-1.033,5.887l47.156,4.078
			c0.426-2.263,0.81-4.306,1.134-6.032L261.491,356.544z M299.52,445.96l-42.532-0.486c0.404,2.115,0.81,4.171,1.202,6.121
			l42.005,0.48C299.969,450.148,299.741,448.093,299.52,445.96z M255.247,435.879l43.571,2.558c-0.169-2.042-0.32-4.101-0.445-6.143
			l-44.115-2.59C254.554,431.693,254.887,433.768,255.247,435.879z"/>
		<g>
			<path style="fill:#B5B5B5;stroke:#263238;stroke-miterlimit:10;" d="M275.652,340.036c0,0-3.453,13.185-3.767,20.091
				c-0.314,6.906,6.906,12.557,17.266,11.615c10.359-0.942,12.243-12.243,12.243-15.068c0-2.825,0.628-26.683,0.628-26.683
				s-5.023,4.395-10.987,8.162C285.07,341.919,275.652,340.036,275.652,340.036z"/>
			<path style="fill:#263238;stroke:#263238;stroke-miterlimit:10;" d="M285.07,351.337c9.811-4.701,14.695-13.924,16.911-19.789
				c0.026-0.981,0.041-1.557,0.041-1.557s-5.023,4.395-10.987,8.162c-5.965,3.767-15.382,1.883-15.382,1.883
				s-2.158,8.241-3.216,15.105C276.012,354.724,280.268,353.638,285.07,351.337z"/>
		</g>
		<g>
			<path style="fill:#B5B5B5;stroke:#263238;stroke-linecap:round;stroke-linejoin:round;stroke-miterlimit:10;" d="M318.69,289.642
				c0,0-0.398-13.924-5.569-21.88c-5.172-7.956-16.072-12.836-28.245-10.741c-15.094,2.598-21.88,13.923-24.267,23.471
				c-2.387,9.548,0.398,23.471,0.398,33.018c0,9.547,11.139,26.653,14.321,29.438s8.095,3.712,13.705,0.867
				c5.15-2.612,13.616-11.529,18.788-16.7c5.172-5.172,8.25-20.542,9.046-24.122C317.663,299.413,318.69,289.642,318.69,289.642z"/>
			<path style="fill:none;stroke:#263238;stroke-linecap:round;stroke-linejoin:round;stroke-miterlimit:10;" d="M276.509,316.678
				c0,0-0.464,3.015,6.494,2.551"/>
			<path style="fill:none;stroke:#263238;stroke-linecap:round;stroke-linejoin:round;stroke-miterlimit:10;" d="M274.421,324.564
				c0,0,8.118,5.567,16.236,0.232"/>
			<path style="fill:none;stroke:#263238;stroke-width:2;stroke-linecap:round;stroke-linejoin:round;stroke-miterlimit:10;" d="
				M290.657,306.009c0,0,2.087-3.479,8.118-0.464"/>
			<path style="fill:#263238;" d="M274.421,303.921c0,1.665-0.779,3.015-1.74,3.015c-0.961,0-1.74-1.35-1.74-3.015
				c0-1.665,0.779-3.015,1.74-3.015C273.642,300.906,274.421,302.256,274.421,303.921z"/>
			<path style="fill:none;stroke:#263238;stroke-linecap:round;stroke-linejoin:round;stroke-miterlimit:10;" d="M266.999,294.411
				c0,0,2.087-4.639,9.046-2.319"/>
			<path style="fill:none;stroke:#263238;stroke-linecap:round;stroke-linejoin:round;stroke-miterlimit:10;" d="M287.642,293.947
				c0,0,6.495-3.479,13.685,1.856"/>
			<path style="fill:#263238;stroke:#263238;stroke-linecap:round;stroke-linejoin:round;stroke-miterlimit:10;" d="
				M284.876,257.021c-15.094,2.598-21.88,13.923-24.267,23.471c-0.497,1.987-0.76,4.17-0.881,6.458
				c0.785-2.434,4.833-13.094,16.316-15.965c12.989-3.247,24.354,0.928,28.297,6.495c3.943,5.567,3.015,12.757,4.407,16.236
				c0.882,2.206,5.306,5.529,8.427,7.667c0.729-4.27,1.515-11.74,1.515-11.74s-0.398-13.923-5.569-21.88
				C307.949,259.806,297.049,254.926,284.876,257.021z"/>
		</g>
		<path style="fill:#92E3A9;stroke:#263238;stroke-miterlimit:10;" d="M314.78,292.092c0,0,1.16-12.293-2.32-20.411
			c-3.479-8.118-7.654-11.597-7.654-11.597s9.742,5.103,13.221,9.974c3.479,4.871,3.943,16.7,3.015,24.818l-7.19-1.16
			L314.78,292.092z"/>
		<path style="fill:#FFFFFF;stroke:#263238;stroke-linecap:round;stroke-linejoin:round;stroke-miterlimit:10;" d="M324.128,304.149
			c-1.4,7.492-6.51,12.823-11.414,11.907c-4.904-0.916-7.745-7.733-6.345-15.225c1.4-7.492,6.51-12.823,11.414-11.907
			C322.687,289.84,325.527,296.656,324.128,304.149z"/>
		<path style="fill:#92E3A9;stroke:#263238;stroke-miterlimit:10;" d="M323.252,305.125c-1.062,5.683-4.938,9.727-8.658,9.032
			c-3.72-0.695-5.875-5.865-4.813-11.548c1.062-5.683,4.938-9.727,8.658-9.032C322.159,294.272,324.313,299.442,323.252,305.125z"/>
		<g>
			<path style="fill:#92E3A9;stroke:#263238;stroke-miterlimit:10;" d="M266.55,435.323c2.338,16.6,5.216,31.482,5.216,31.482
				h-17.15c0,0-4.388-22.602-9.726-35.155c-3.036-7.136-3.734-10.023-3.777-11.174c-2.338,5.557-16.853,39.839-19.453,40.991
				c-2.826,1.256-13.19-0.942-16.958-2.198c-3.76-1.256-4.074-6.586-3.446-8.784c0.628-2.198,26.99-65.93,29.502-70.004
				c2.512-4.082,5.025-11.305,5.339-13.189c0.314-1.884-0.314-6.281,2.512-7.842c1.71-0.951,13.73-3.734,22.977-5.792
				c6.063-1.343,10.93-2.373,10.93-2.373s-7.537,27.94-8.793,47.716c-0.558,8.767,0.96,23.09,2.826,36.315
				C266.559,435.314,266.559,435.314,266.55,435.323z"/>
			<path style="fill:#92E3A9;stroke:#263238;stroke-miterlimit:10;" d="M266.55,435.314c-2.163-3.559-10.922-18.798-12.09-34.666
				c-1.047-14.236,4.632-37.606,7.127-46.992c6.063-1.343,10.93-2.373,10.93-2.373s-7.537,27.94-8.793,47.716
				C263.165,407.767,264.683,422.09,266.55,435.314z"/>
			<path style="fill:none;stroke:#263238;stroke-miterlimit:10;" d="M243.53,387.58c0.777-3.394,1.358-5.219,1.358-5.219"/>
			<path style="fill:none;stroke:#263238;stroke-miterlimit:10;" d="M241.435,419.717c0,0-1.883-6.592-0.314-18.521
				c0.414-3.146,0.871-5.942,1.321-8.354"/>
		</g>
		<g>
			<path style="fill:#92E3A9;stroke:#263238;stroke-miterlimit:10;" d="M379.559,422.467c-7.223-0.321-43.32-22.812-43.32-22.812
				s-11.305,22.169-11.619,26.669c-0.314,4.5,8.793,40.481,8.793,40.481h-38.609c0,0-1.178-12.625-1.413-26.473
				c-0.113-6.393-0.026-13.044,0.471-18.83c1.57-18.312,7.842-70.043,7.842-70.043l6.281,0.643c0,0,1.788,0.598,4.571,1.562
				c7.432,2.589,21.991,7.866,28.394,11.607c8.784,5.143,21.032,13.5,26.998,17.357c5.958,3.848,20.09,12.526,22.916,24.098
				C393.691,418.289,386.782,422.789,379.559,422.467z"/>
			<path style="fill:none;stroke:#263238;stroke-miterlimit:10;" d="M312.556,353.665c-0.846,12.866-3.35,43.499-8.741,58.311
				c-5.155,14.169-8.863,24.16-10.424,28.356c-0.113-6.393-0.026-13.044,0.471-18.83c1.57-18.312,7.842-70.043,7.842-70.043
				l6.281,0.643C307.985,352.103,309.773,352.701,312.556,353.665z"/>
			<line style="fill:none;stroke:#263238;stroke-miterlimit:10;" x1="336.239" y1="399.654" x2="321.799" y2="395.155"/>
			<path style="fill:none;stroke:#263238;stroke-miterlimit:10;" d="M315.699,385.431c0.426,4.754,1.731,10.04,5.158,12.938"/>
			<path style="fill:none;stroke:#263238;stroke-miterlimit:10;" d="M315.834,375.556c0,0-0.297,2.262-0.314,5.425"/>
			<path style="fill:none;stroke:#263238;stroke-miterlimit:10;" d="M313.951,392.264c0,0,3.453,6.426,7.534,8.675"/>
		</g>
		<path style="fill:#B5B5B5;stroke:#263238;stroke-miterlimit:10;" d="M335.632,346.245c0,0-0.901-3.347-0.901-7.208
			c0-3.862,0.901-6.05-0.515-5.921c-1.416,0.129-3.861,1.931-4.634,5.02s0.901,5.921,1.158,6.951
			c0.258,1.03,0.258,1.931,0.258,1.931s-11.198,0.386-13.258,0.386s-4.119,1.159-4.119,3.089c0,1.931,2.188,2.961,2.188,2.961
			l1.03,0.515c0,0-1.287,2.446-0.386,3.733c0.901,1.287,1.802,1.931,1.802,1.931s-0.901,1.158-0.257,2.703
			c0.644,1.545,1.673,2.188,1.673,2.188s-1.673,1.545,0.515,3.604s6.951,2.188,10.297,2.188c3.347,0,6.178,0.129,6.178,0.129
			l1.416,0.129l11.842,17.634l11.198-12.486c0,0-16.476-15.961-18.664-18.793C340.266,354.096,335.632,346.245,335.632,346.245z"/>
		<path style="fill:#92E3A9;stroke:#263238;stroke-miterlimit:10;" d="M360.725,374.253l-15.382,14.44
			c0,0,14.126,18.835,21.66,28.253c7.534,9.418,21.346,10.987,27.311,6.278c5.964-4.709,6.592-15.382,1.256-21.974
			C390.233,394.658,360.725,374.253,360.725,374.253z"/>
		<g>
			<path style="fill:#B5B5B5;stroke:#263238;stroke-miterlimit:10;" d="M257.797,450.097c0,0,22.582,3.914,24.69,3.914
				s24.388-5.721,25.894-4.516c1.505,1.204,11.441,9.635,13.85,12.044c2.409,2.409,3.613,4.817,3.613,4.817h-20.775l-6.323-1.505
				c0,0-5.359,2.483-8.37,2.483s-13.085-0.582-13.085-0.582l-17.737-0.291C259.554,466.461,253.582,456.42,257.797,450.097z"/>
			<path style="fill:none;stroke:#263238;stroke-miterlimit:10;" d="M311.391,466.356c0,0-5.119-5.721-7.226-7.226
				c-2.108-1.505-4.215-2.108-4.215-2.108"/>
			<path style="fill:none;stroke:#263238;stroke-miterlimit:10;" d="M318.317,466.657c0,0-9.936-10.839-11.14-11.742
				c-1.204-0.903-4.215-1.807-4.215-1.807"/>
			<path style="fill:#92E3A9;stroke:#263238;stroke-miterlimit:10;" d="M208.418,439.86c0,0-9.033,7.226-10.538,12.044
				c-1.505,4.817,0.602,10.538,5.42,12.345c4.817,1.806,58.58,2.794,58.58,2.794c-0.877,0.406-4.822-3.283-2.577-8.214
				c1.517-3.334,5.721-8.13,5.721-8.13l-44.863-11.441"/>
		</g>
	</g>
</g>
<g id="Device">
	<g>
		<rect x="99.765" y="464.963" style="fill:#263238;stroke:#263238;stroke-miterlimit:10;" width="184.505" height="2.371"/>
		<g>
			<polygon style="fill:#FFFFFF;stroke:#263238;stroke-miterlimit:10;" points="217.326,467.333 102.263,467.333 91.622,387.315 
				206.686,387.315 			"/>
			<polygon style="fill:#FFFFFF;stroke:#263238;stroke-miterlimit:10;" points="214.99,467.333 99.927,467.333 89.286,387.315 
				204.349,387.315 			"/>
			<path style="fill:#263238;stroke:#263238;stroke-miterlimit:10;" d="M108.825,467.333h105.812l-8.032-60.404
				c-14.169,8.963-31.417,20.65-50.215,35.009C139.449,454.879,123.01,462.667,108.825,467.333z"/>
			<ellipse style="fill:#FFFFFF;stroke:#263238;stroke-miterlimit:10;" cx="148.478" cy="426.572" rx="7.56" ry="6.979"/>
		</g>
	</g>
	<line style="fill:none;stroke:#263238;stroke-miterlimit:10;" x1="11.167" y1="467.333" x2="473" y2="467.333"/>
</g>
</svg>
